<svg xmlns="http://www.w3.org/2000/svg" viewBox="0 0 512 512"><defs><style>.cls-1{fill:#044d3c;}.cls-2{fill:#fff;}</style></defs><g id="Layer_2" data-name="Layer 2"><g id="Layer_1-2" data-name="Layer 1"><rect class="cls-1" width="512" height="512"/><path class="cls-2" d="M431.5,100H343.75V70.75A29.29,29.29,0,0,0,314.5,41.49h-117a29.29,29.29,0,0,0-29.25,29.26V100H80.5a48.81,48.81,0,0,0-48.76,48.75v234A48.81,48.81,0,0,0,80.5,431.5h5.86a48.75,48.75,0,0,0,95.53,0H330.11a48.75,48.75,0,0,0,95.53,0h5.86a48.81,48.81,0,0,0,48.76-48.75v-234A48.81,48.81,0,0,0,431.5,100ZM187.75,70.75A9.76,9.76,0,0,1,197.5,61h117a9.76,9.76,0,0,1,9.75,9.76V100H187.75ZM134.12,451a29.32,29.32,0,0,1-27.58-19.51H161.7A29.31,29.31,0,0,1,134.12,451Zm243.76,0A29.31,29.31,0,0,1,350.3,431.5h55.16A29.32,29.32,0,0,1,377.88,451Zm82.88-68.26A29.29,29.29,0,0,1,431.5,412H80.5a29.29,29.29,0,0,1-29.26-29.25v-234A29.29,29.29,0,0,1,80.5,119.5h351a29.29,29.29,0,0,1,29.26,29.25Z"/><path class="cls-2" d="M260.88,178h-117a9.75,9.75,0,0,0-9.75,9.75v58.5a9.76,9.76,0,0,0,9.75,9.75h117a9.76,9.76,0,0,0,9.75-9.75v-58.5A9.75,9.75,0,0,0,260.88,178Zm-9.76,58.5h-97.5v-39h97.5Z"/><path class="cls-2" d="M231.23,279A9.75,9.75,0,0,0,218,275.18l-51.13,28.41a9.74,9.74,0,0,0-3.79,13.25L191.46,368a9.75,9.75,0,0,0,13.26,3.78l51.14-28.41a9.75,9.75,0,0,0,3.79-13.26Zm-27.46,71L184.83,315.9,218.92,297l19,34.09Z"/><path class="cls-2" d="M368.13,187.75h-58.5a9.74,9.74,0,0,0-9.75,9.75v117a9.74,9.74,0,0,0,9.75,9.75h58.5a9.75,9.75,0,0,0,9.75-9.75v-117A9.75,9.75,0,0,0,368.13,187.75Zm-9.75,117h-39v-97.5h39Z"/></g></g></svg>